# AST/ASF file generated using VICON BodyLanguage
# -----------------------------------------------
:version 1.10
:name VICON
:units
  mass 1.0
  length 0.45
  angle deg
:documentation
   .ast/.asf automatically generated from VICON data using
   VICON BodyBuilder and BodyLanguage model FoxedUp or BRILLIANT.MOD
:root
   order TX TY TZ RX RY RZ
   axis XYZ
   position 0 0 0  
   orientation 0 0 0 
:bonedata
  begin
     id 1 
     name lhipjoint
     direction 0.577973 -0.728611 0.367523 
     length 2.48544 
     axis 0 0 0  XYZ
  end
  begin
     id 2 
     name lfemur
     direction 0.34202 -0.939693 0  
     length 7.1921  
     axis 0 0 20  XYZ
    dof rx ry rz
    limits (-160.0 20.0)
           (-70.0 70.0)
           (-60.0 70.0)
  end
  begin
     id 3 
     name ltibia
     direction 0.34202 -0.939693 0   
     length 7.71059   
     axis 0 0 20   XYZ
    dof rx
    limits (-10.0 170.0)
  end
  begin
     id 4 
     name lfoot
     direction 0.089538 -0.246004 0.965124   
     length 2.19909   
     axis -90 7.62852e-016 20   XYZ
    dof rx rz
    limits (-45.0 90.0)
           (-70.0 20.0)
  end
  begin
     id 5 
     name ltoes
     direction 1.53544e-011 -4.21829e-011 1   
     length 1.10116   
     axis -90 7.62852e-016 20   XYZ
    dof rx
    limits (-90.0 20.0)
  end
  begin
     id 6 
     name rhipjoint
     direction -0.554414 -0.743062 0.374812   
     length 2.4371  
     axis 0 0 0  XYZ 
  end
  begin
     id 7 
     name rfemur
     direction -0.34202 -0.939693 0   
     length 7.47254   
     axis 0 0 -20   XYZ
    dof rx ry rz
    limits (-160.0 20.0)
           (-70.0 70.0)
           (-70.0 60.0)
  end
  begin
     id 8 
     name rtibia
     direction -0.34202 -0.939693 0   
     length 7.65855   
     axis 0 0 -20   XYZ
    dof rx
    limits (-10.0 170.0)
 end
 begin
     id 9 
     name rfoot
     direction -0.133779 -0.367555 0.92033   
     length 2.43006  
     axis -90 -7.62852e-016 -20   XYZ
    dof rx rz
    limits (-45.0 90.0)
           (-20.0 70.0)
  end
  begin
     id 10 
     name rtoes
     direction -1.53563e-011 -4.21889e-011 1   
     length 1.19625   
     axis -90 -7.62852e-016 -20   XYZ
    dof rx
    limits (-90.0 20.0)
  end
  begin
     id 11 
     name lowerback
     direction 0.0249066 0.998043 -0.0573585   
     length 2.08485   
     axis 0 0 0   XYZ
    dof rx ry rz
    limits (-20.0 45.0)
           (-30.0 30.0)
           (-30.0 30.0)
  end
  begin
     id 12 
     name upperback
     direction 0.0237884 0.999673 0.00943178   
     length 2.08515   
     axis 0 0 0   XYZ
    dof rx ry rz
    limits (-20.0 45.0)
           (-30.0 30.0)
           (-30.0 30.0)
  end
  begin
     id 13 
     name thorax
     direction 0.0106671 0.999301 0.0358174   
     length 2.09037   
     axis 0 0 0   XYZ
    dof rx ry rz
    limits (-20.0 45.0)
           (-30.0 30.0)
           (-30.0 30.0)
  end
  begin
     id 14 
     name lowerneck
     direction -0.0580016 0.987052 0.149546   
     length 1.84454   
     axis 0 0 0   XYZ
    dof rx ry rz
    limits (-20.0 45.0)
           (-30.0 30.0)
           (-30.0 30.0)
  end
  begin
     id 15 
     name upperneck
     direction 0.079456 0.981963 -0.171567   
     length 1.88141   
     axis 0 0 0   XYZ
    dof rx ry rz
    limits (-20.0 45.0)
           (-30.0 30.0)
           (-30.0 30.0)
  end
  begin
     id 16
     name head
     direction 0.0262167 0.9967 -0.0768276  
     length 1.89541  
     axis 0 0 0   XYZ
    dof rx ry rz
    limits (-20.0 45.0)
           (-30.0 30.0)
           (-30.0 30.0)
  end
  begin
     id 17 
     name lclavicle
     direction 0.946135 0.322134 -0.0325326  
     length 3.949  
     axis 0 0 0   XYZ
    dof ry rz
    limits (-20.0 10.0)
           (0.0 20.0)
  end
  begin
     id 18 
     name lhumerus
     direction 1 -4.48964e-011 1.94005e-028   
     length 5.10995   
     axis 180 -30 -90   XYZ
    dof rx ry rz
    limits (-60.0 90.0)
           (-90.0 90.0)
           (-90.0 90.0)
  end
  begin
     id 19
     name lradius
     direction 1 -4.48976e-011 2.87852e-027   
     length 3.21207   
     axis 180 -30 -90   XYZ
    dof rx
    limits (-10.0 170.0)
  end
  begin
     id 20
     name lwrist
     direction 1 -4.48963e-011 1.9975e-027   
     length 1.60604   
     axis 2.96054e-016 90 90   XYZ
    dof ry
    limits (-180.0 0.0)
 end
  begin
     id 21 
     name lhand
     direction 1 -4.48919e-011 4.00227e-027   
     length 0.63349   
     axis -2.5488e-015 90 90   XYZ
    dof rx rz
    limits (-90.0 90.0)
           (-45.0 45.0)
  end
  begin
     id 22 
     name lfingers
     direction 1 -4.49037e-011 7.9652e-027   
     length 0.510736   
     axis -5.0975e-015 90 90   XYZ
    dof rx
    limits (0.0 90.0)
  end
  begin
     id 23
     name lthumb
     direction 0.707107 -6.34922e-011 0.707107   
     length 0.733318   
     axis -90 45 -4.48553e-014   XYZ
    dof rx rz
    limits (-45.0 45.0)
           (-45.0 45.0)
  end
  begin
     id 24 
     name rclavicle
     direction -0.940085 0.328911 -0.0897654   
     length 3.93848  
     axis 0 0 0   XYZ 
    dof ry rz
    limits (-10.0 20.0)
           (-20.0 0.0)
  end
  begin
     id 25 
     name rhumerus
     direction -1 -4.48958e-011 3.02044e-027  
     length 5.25109   
     axis 180 30 90   XYZ
    dof rx ry rz
    limits (-90.0 60.0)
           (-90.0 90.0)
           (-90.0 90.0)
  end
  begin
     id 26 
     name rradius
     direction -1 -4.4897e-011 9.78352e-028   
     length 3.28364   
     axis 180 30 90   XYZ
    dof rx
    limits (-10.0 170.0)
  end
  begin
     id 27 
     name rwrist
     direction -1 -4.48943e-011 1.99918e-027   
     length 1.64182   
     axis 2.96054e-016 -90 -90   XYZ
    dof ry
    limits (-180.0 0.0)
  end
  begin
     id 28
     name rhand
     direction -1 -4.49024e-011 3.98478e-027   
     length 0.599745   
     axis -2.5488e-015 -90 -90   XYZ
    dof rx rz
    limits (-90.0 90.0)
           (-45.0 45.0)
  end
  begin
     id 29
     name rfingers
     direction -1 -4.48914e-011 8.00621e-027   
     length 0.48353   
     axis -5.0975e-015 -90 -90   XYZ
    dof rx
    limits (0.0 90.0)
  end
  begin
     id 30
     name rthumb
     direction -0.707107 -6.34992e-011 0.707107   
     length 0.694255   
     axis -90 -45 4.48553e-014   XYZ
    dof rx rz
    limits (-45.0 45.0)
           (-45.0 45.0)
  end
:hierarchy
  begin
    root lhipjoint rhipjoint lowerback
    lhipjoint lfemur
    lfemur ltibia
    ltibia lfoot
    lfoot ltoes
    rhipjoint rfemur
    rfemur rtibia
    rtibia rfoot
    rfoot rtoes
    lowerback upperback
    upperback thorax
    thorax lowerneck lclavicle rclavicle
    lowerneck upperneck
    upperneck head
    lclavicle lhumerus
    lhumerus lradius
    lradius lwrist
    lwrist lhand lthumb
    lhand lfingers
    rclavicle rhumerus
    rhumerus rradius
    rradius rwrist
    rwrist rhand rthumb
    rhand rfingers
  end

#!OML:ASF E:\CV Data\Top Level 1\Subject 1\Session 1\player.ASF
:FULLY-SPECIFIED
:DEGREES
495
root 2.40535 17.2001 5.05757 3.50358 30.7567 -16.2871
lowerback 18.0561 3.31382 2.55205
upperback 2.50178 5.09803 2.4416
thorax -7.40356 2.44231 -0.0496563
lowerneck -2.25726 -15.7896 -17.6611
upperneck -5.67762 -21.467 33.4116
head 4.9039 -10.6942 11.6417
rclavicle -4.57205e-014 -3.10104e-014
rhumerus 181.838 185.138 118.399
rradius 40.8866
rwrist -17.0537
rhand -34.4153 7.13075
rfingers 7.12502
rthumb -7.58048 -22.7134
lclavicle -4.57205e-014 -3.10104e-014
lhumerus -22.7178 -25.5652 96.6234
lradius 60.9845
lwrist 22.5119
lhand -18.8132 21.401
lfingers 7.12502
lthumb 7.48545 51.2486
rfemur -19.0853 -15.7387 10.2172
rtibia 70.2724
rfoot -1.49407 -13.4736
rtoes 11.6043
lfemur -40.5295 -3.16919 -16.1568
ltibia 28.173
lfoot 5.08063 -21.1974
ltoes 12.0745
496
root 2.41721 17.1913 5.02233 3.13736 30.0624 -16.1795
lowerback 17.8678 3.29484 2.29714
upperback 2.44795 5.00593 2.30832
thorax -7.36934 2.40323 -0.0179462
lowerneck -2.38893 -15.7316 -17.7091
upperneck -4.94461 -21.5527 33.3829
head 5.1592 -10.6796 11.6105
rclavicle 1.35174e-014 4.85035e-014
rhumerus 181.682 183.03 118.427
rradius 42.6309
rwrist -17.7724
rhand -33.8079 7.35573
rfingers 7.12502
rthumb -6.99414 -22.5087
lclavicle 1.35174e-014 4.85035e-014
lhumerus -22.3798 -25.157 96.3495
lradius 61.1759
lwrist 23.1743
lhand -18.9276 21.5055
lfingers 7.12502
lthumb 7.37504 51.357
rfemur -19.1874 -16.1581 10.6365
rtibia 71.392
rfoot -1.69027 -13.2477
rtoes 11.2429
lfemur -40.0508 -3.02739 -16.1677
ltibia 28.2127
lfoot 5.05614 -20.7256
ltoes 11.838
497
root 2.42838 17.1816 4.98626 2.77511 29.3422 -16.0648
lowerback 17.6779 3.28431 2.0321
upperback 2.38821 4.92438 2.17632
thorax -7.34101 2.36938 0.0181285
lowerneck -2.52454 -15.6679 -17.7679
upperneck -4.18077 -21.636 33.3279
head 5.42164 -10.6616 11.5742
rclavicle 4.73108e-014 3.18055e-014
rhumerus 181.549 181.007 118.324
rradius 44.4113
rwrist -18.8892
rhand -33.1173 7.63789
rfingers 7.12502
rthumb -6.32743 -22.2476
lclavicle 4.73108e-014 3.18055e-014
lhumerus -22.0937 -24.6743 96.0665
lradius 61.4232
lwrist 23.8563
lhand -18.9768 21.5697
lfingers 7.12502
lthumb 7.32756 51.4228
rfemur -19.241 -16.5667 11.1111
rtibia 72.4612
rfoot -1.8962 -12.9747
rtoes 10.752
lfemur -39.5833 -2.90205 -16.1625
ltibia 28.2674
lfoot 5.04198 -20.2201
ltoes 11.618
498
root 2.43913 17.1708 4.94933 2.42304 28.5981 -15.9339
lowerback 17.4817 3.28116 1.75587
upperback 2.32558 4.85127 2.0417
thorax -7.31257 2.33986 0.0559144
lowerneck -2.67862 -15.5982 -17.8259
upperneck -3.38673 -21.7132 33.2363
head 5.68968 -10.6375 11.5272
rclavicle 4.49253e-014 1.82882e-014
rhumerus 181.44 179.057 118.102
rradius 46.195
rwrist -20.1986
rhand -32.3466 7.95425
rfingers 7.12502
rthumb -5.58335 -21.9522
lclavicle 4.49253e-014 1.82882e-014
lhumerus -21.8532 -24.1372 95.7718
lradius 61.7267
lwrist 24.5465
lhand -18.9766 21.6407
lfingers 7.12502
lthumb 7.32773 51.4938
rfemur -19.2404 -16.9692 11.6259
rtibia 73.4715
rfoot -2.11751 -12.6333
rtoes 10.1618
lfemur -39.1286 -2.78798 -16.1551
ltibia 28.3366
lfoot 5.03612 -19.692
ltoes 11.4211
499
root 2.44955 17.159 4.91138 2.08304 27.8275 -15.7943
lowerback 17.2773 3.28854 1.47964
upperback 2.25285 4.79289 1.90233
thorax -7.28957 2.31729 0.0853478
lowerneck -2.82751 -15.5186 -17.8734
upperneck -2.58087 -21.7759 33.1069
head 5.95025 -10.6067 11.4711
rclavicle 3.18055e-015 -8.74653e-015
rhumerus 181.333 177.173 117.778
rradius 47.9604
rwrist -21.5158
rhand -31.4876 8.26655
rfingers 7.12502
rthumb -4.75401 -21.6601
lclavicle 3.18055e-015 -8.74653e-015
lhumerus -21.667 -23.572 95.4712
lradius 62.0769
lwrist 25.2338
lhand -18.9563 21.7369
lfingers 7.12502
lthumb 7.34731 51.5893
rfemur -19.1893 -17.36 12.1866
rtibia 74.4133
rfoot -2.3541 -12.2167
rtoes 9.47224
lfemur -38.6927 -2.67975 -16.1395
ltibia 28.4202
lfoot 5.0408 -19.1418
ltoes 11.2588
500
root 2.45956 17.1461 4.87219 1.75543 27.0293 -15.6499
lowerback 17.0669 3.30941 1.2121
upperback 2.17376 4.75479 1.7586
thorax -7.26867 2.30421 0.100778
lowerneck -2.97648 -15.4347 -17.9144
upperneck -1.77931 -21.8282 32.9515
head 6.2033 -10.5718 11.4092
rclavicle -5.96354e-014 2.3059e-014
rhumerus 181.221 175.349 117.369
rradius 49.6926
rwrist -22.6577
rhand -30.5805 8.55309
rfingers 7.12502
rthumb -3.87808 -21.3914
lclavicle -5.96354e-014 2.3059e-014
lhumerus -21.5193 -23.0067 95.1672
lradius 62.466
lwrist 25.9215
lhand -18.9751 21.9052
lfingers 7.12502
lthumb 7.32916 51.7583
rfemur -19.0876 -17.7372 12.7954
rtibia 75.2789
rfoot -2.59744 -11.7178
rtoes 8.70162
lfemur -38.2795 -2.56297 -16.117
ltibia 28.5186
lfoot 5.05291 -18.5828
ltoes 11.1302
501
root 2.46933 17.1322 4.83164 1.44345 26.1998 -15.4973
lowerback 16.8507 3.34599 0.953328
upperback 2.08303 4.73971 1.60676
thorax -7.2554 2.30183 0.0974434
lowerneck -3.0988 -15.3433 -17.9453
upperneck -1.00213 -21.8637 32.7782
head 6.43732 -10.5336 11.347
rclavicle -1.19271e-014 1.03368e-014
rhumerus 181.077 173.568 116.879
rradius 51.3801
rwrist -23.4784
rhand -29.6551 8.79105
rfingers 7.12502
rthumb -2.98438 -21.1678
lclavicle -1.19271e-014 1.03368e-014
lhumerus -21.4153 -22.4503 94.8588
lradius 62.8834
lwrist 26.5951
lhand -18.9722 22.0823
lfingers 7.12502
lthumb 7.33202 51.9353
rfemur -18.9348 -18.0959 13.4441
rtibia 76.0587
rfoot -2.83848 -11.1296
rtoes 7.88025
lfemur -37.8907 -2.42545 -16.0951
ltibia 28.6316
lfoot 5.06704 -18.019
ltoes 11.0332
